<svg xmlns="http://www.w3.org/2000/svg" viewBox="0 0 128 128">
  <rect width="128" height="128" rx="24" fill="#1b1d22"/>
  <rect x="24" y="24" width="80" height="80" rx="14" fill="#24272e"/>
  <g fill="#2d333b">
    <rect x="34" y="36" width="12" height="12" rx="3"/>
    <rect x="50" y="36" width="12" height="12" rx="3"/>
    <rect x="66" y="36" width="12" height="12" rx="3"/>
    <rect x="82" y="36" width="12" height="12" rx="3"/>
    <rect x="34" y="52" width="12" height="12" rx="3"/>
    <rect x="50" y="52" width="12" height="12" rx="3"/>
    <rect x="66" y="52" width="12" height="12" rx="3"/>
    <rect x="82" y="52" width="12" height="12" rx="3"/>
    <rect x="34" y="68" width="12" height="12" rx="3"/>
    <rect x="50" y="68" width="12" height="12" rx="3"/>
    <rect x="66" y="68" width="12" height="12" rx="3"/>
    <rect x="82" y="68" width="12" height="12" rx="3"/>
    <rect x="34" y="84" width="12" height="12" rx="3"/>
    <rect x="50" y="84" width="12" height="12" rx="3"/>
    <rect x="66" y="84" width="12" height="12" rx="3"/>
    <rect x="82" y="84" width="12" height="12" rx="3"/>
  </g>
  <rect x="34" y="84" width="12" height="12" rx="3" fill="#9be9a8"/>
  <rect x="50" y="68" width="12" height="12" rx="3" fill="#40c463"/>
  <rect x="66" y="52" width="12" height="12" rx="3" fill="#30a14e"/>
  <rect x="82" y="36" width="12" height="12" rx="3" fill="#216e39"/>
  <rect x="32" y="82" width="16" height="16" rx="5" fill="none" stroke="#ffffff" stroke-opacity=".78" stroke-width="3"/>
</svg>
